<svg width="128" height="128" viewBox="0 0 128 128" fill="none" xmlns="http://www.w3.org/2000/svg">
<path fill-rule="evenodd" clip-rule="evenodd" d="M71.4699 3.19006L124.268 55.7652C128.565 60.0442 128.565 67.0009 124.268 71.2798L71.4699 123.855C67.1984 128.108 60.2922 128.108 56.0207 123.855L3.22279 71.2798C-1.07428 67.0009 -1.07425 60.0441 3.22279 55.7652L56.0207 3.19006C60.2922 -1.06335 67.1984 -1.06335 71.4699 3.19006Z" fill="white"/>
<path d="M117.752 61.7041C118.761 62.7108 118.761 64.3405 117.752 65.3472L72.1014 110.909C70.4707 112.536 67.6781 111.386 67.6781 109.087V89.7295C67.6781 89.5587 67.7461 89.3949 67.8672 89.2741L93.21 63.981C93.4622 63.7294 93.4622 63.322 93.21 63.0703L67.8672 37.7773C67.7461 37.6564 67.6781 37.4926 67.6781 37.3219V17.9643C67.6781 15.6653 70.4707 14.5153 72.1014 16.1428L117.752 61.7041Z" fill="#1C66DB"/>
<path d="M34.2896 63.981C34.0374 63.7294 34.0374 63.322 34.2896 63.0703L59.7486 37.6613C59.8697 37.5404 59.9377 37.3766 59.9377 37.2059V17.8483C59.9377 15.5493 57.1451 14.3993 55.5144 16.0268L9.74721 61.7041C8.73856 62.7108 8.73856 64.3405 9.74721 65.3472L55.5144 111.025C57.1451 112.652 59.9377 111.502 59.9377 109.203V89.8455C59.9377 89.6747 59.8697 89.511 59.7486 89.3901L34.2896 63.981Z" fill="#1C66DB"/>
<path d="M83.4186 63.0704C83.6708 63.322 83.6708 63.7294 83.4186 63.9811L69.0051 78.3664C68.5159 78.8546 67.6781 78.5096 67.6781 77.8199V49.2316C67.6781 48.5419 68.5159 48.1968 69.0051 48.6851L83.4186 63.0704Z" fill="#1C66DB"/>
</svg>
