<svg width="20" height="16" fill="none" xmlns="http://www.w3.org/2000/svg"><g clip-path="url(#clip0_551_12426)"><g clip-path="url(#clip1_551_12426)"><path transform="translate(0 .5)" fill="#fff" d="M0 0H20V15H0z"/><path fill-rule="evenodd" clip-rule="evenodd" d="M0 .5h20v15H0V.5z" fill="#E31D1C"/><path fill-rule="evenodd" clip-rule="evenodd" d="M0 1.75V3h20V1.75H0zm0 2.5V5.5h20V4.25H0zM0 8V6.75h20V8H0zm0 1.25v1.25h20V9.25H0zM0 13v-1.25h20V13H0zm0 2.5v-1.25h20v1.25H0z" fill="#F7FCFF"/><path fill="#2E42A5" d="M0 0.5H11.25V9.25H0z"/><path fill-rule="evenodd" clip-rule="evenodd" d="M1.3 3.217l.662-.461.514.37h-.29l.588.52-.2.73h-.31l-.303-.67-.257.67H.935l.589.52-.224.821.662-.461.514.37h-.29l.588.52-.2.73h-.31l-.303-.67-.257.67H.935l.589.52-.224.821.662-.461.641.461-.199-.82.515-.521H2.68l.531-.37.514.37h-.29l.588.52-.224.821.662-.461.641.461-.199-.82.515-.521H5.18l.531-.37.514.37h-.29l.588.52-.224.821.662-.461.641.461-.199-.82.515-.521H7.68l.531-.37.514.37h-.29l.588.52-.224.821.662-.461.641.461-.199-.82.515-.521h-.655l-.303-.67-.257.67H8.83l-.177-.73.515-.52H8.93l.531-.37.641.461-.199-.82.515-.521h-.655l-.303-.67-.257.67H8.83l-.177-.73.515-.52H8.93l.531-.37.641.461-.199-.82.515-.521h-.655l-.303-.67-.257.67h-.769l.589.52-.2.73h-.31l-.303-.67-.257.67H7.58l-.177-.73.515-.52h-.655l-.303-.67-.257.67h-.769l.589.52-.2.73h-.31l-.303-.67-.257.67H5.08l-.177-.73.515-.52h-.655l-.303-.67-.257.67h-.769l.589.52-.2.73h-.31l-.303-.67-.257.67H2.58l-.177-.73.515-.52h-.655l-.303-.67-.257.67H.935l.589.52-.224.821zm7.525 2.409l.199-.73-.589-.52h.291l-.514-.37-.53.37h.237l-.515.52.177.73h.373l.257-.67.303.67h.31zm-1.349 0l-.514-.37-.53.37h.237l-.515.52.177.73h.373l.257-.67.303.67h.31l.2-.73-.589-.52h.291zm-2.202.52l-.2.73h-.31l-.303-.67-.257.67H3.83l-.177-.73.515-.52H3.93l.531-.37.514.37h-.29l.588.52zm.18-.52H5.08l-.177-.73.515-.52H5.18l.531-.37.514.37h-.29l.588.52-.2.73h-.31l-.303-.67-.257.67zm-1.63 0l.2-.73-.589-.52h.291l-.514-.37-.53.37h.237l-.515.52.177.73h.373l.257-.67.303.67h.31zm3.95-1.98l-.2.73h-.31l-.303-.67-.257.67H6.33l-.177-.73.515-.52H6.43l.531-.37.514.37h-.29l.588.52zm-2.798-.52l-.514-.37-.53.37h.237l-.515.52.177.73h.373l.257-.67.303.67h.31l.2-.73-.589-.52h.291z" fill="#F7FCFF"/></g></g><rect x=".5" y="1" width="19" height="14" rx="1" stroke="#000" stroke-opacity=".1" style="mix-blend-mode:multiply"/><defs><clipPath id="clip0_551_12426"><rect y=".5" width="20" height="15" rx="1.5" fill="#fff"/></clipPath><clipPath id="clip1_551_12426"><path fill="#fff" transform="translate(0 .5)" d="M0 0H20V15H0z"/></clipPath></defs></svg>