<svg width="20" height="20" fill="none" xmlns="http://www.w3.org/2000/svg"><path d="M8.125 11.25v4.034a.625.625 0 0 1-.737.615l-5-.91a.625.625 0 0 1-.513-.614V11.25a.625.625 0 0 1 .625-.625h5a.625.625 0 0 1 .625.625zm-.224-7.014a.625.625 0 0 0-.513-.135l-5 .91a.625.625 0 0 0-.513.614V8.75a.625.625 0 0 0 .625.625h5a.625.625 0 0 0 .625-.625V4.716a.625.625 0 0 0-.224-.48zm8.349 6.389H10a.625.625 0 0 0-.625.625v4.488a.625.625 0 0 0 .513.616l6.25 1.136a.625.625 0 0 0 .737-.615V11.25a.625.625 0 0 0-.625-.625zm.4-7.98a.625.625 0 0 0-.512-.135l-6.25 1.137a.625.625 0 0 0-.513.615V8.75a.625.625 0 0 0 .625.625h6.25a.625.625 0 0 0 .625-.625V3.125a.626.626 0 0 0-.224-.48z" fill="#FAFAFA"/></svg>