<svg width="20" height="20" fill="none" xmlns="http://www.w3.org/2000/svg"><path fill-rule="evenodd" clip-rule="evenodd" d="M6.447 3.889A3.616 3.616 0 0 1 10 1a3.616 3.616 0 0 1 3.553 2.889l.405 2.006a8.155 8.155 0 0 0 1.227 2.938l.696 1.036c.435.647.719 1.377.837 2.139a1.847 1.847 0 0 1 1.56 1.146l.59 1.463a1.823 1.823 0 0 1-.533 2.09l-2.261 1.868a1.861 1.861 0 0 1-2.293.058l-.91-.677a1.866 1.866 0 0 1-.036-.027c-.447.12-.918.184-1.403.184H8.568c-.486 0-.956-.064-1.403-.184-.011.01-.023.018-.035.027l-.91.677a1.861 1.861 0 0 1-2.294-.058l-2.26-1.869a1.824 1.824 0 0 1-.534-2.09l.59-1.462a1.847 1.847 0 0 1 1.56-1.146 5.276 5.276 0 0 1 .837-2.139l.696-1.036a8.156 8.156 0 0 0 1.227-2.938l.405-2.006zm7.566 8.482a1.835 1.835 0 0 0-.586.742l-.921 2.133a3.098 3.098 0 0 1-1.564.422H9.058c-.56 0-1.098-.15-1.564-.422l-.921-2.133c-.13-.3-.334-.553-.586-.742.03-.387.136-.769.315-1.125l1.51-2.995.01.01a3.1 3.1 0 0 0 4.357 0l.009-.01 1.51 2.995c.18.356.284.738.315 1.125zM11.85 6.123V4.667h-1.233v.962c.262.052.518.14.762.26l.47.234zm-2.465-.494v-.962H8.15v1.456l.471-.234c.244-.12.5-.207.762-.26zm-5.945 7.595a.616.616 0 0 0-.572.384l-.59 1.463a.608.608 0 0 0 .177.696l2.261 1.869a.62.62 0 0 0 .765.02l.91-.678a.608.608 0 0 0 .197-.73L5.44 13.595a.616.616 0 0 0-.567-.37H3.44zm13.694.384a.616.616 0 0 0-.572-.384h-1.434a.617.617 0 0 0-.567.37l-1.147 2.655c-.112.259-.03.56.197.73l.91.676a.62.62 0 0 0 .765-.019l2.26-1.869a.608.608 0 0 0 .178-.696l-.59-1.463zm-7.96-6.625a1.863 1.863 0 0 1 1.654 0l.598.296-.118.117a1.86 1.86 0 0 1-2.614 0l-.118-.117.598-.296z" fill="#FAFAFA"/></svg>