<svg width="20" height="20" fill="none" xmlns="http://www.w3.org/2000/svg"><path opacity=".9" d="M17.234 6.199c-.11.082-2.054 1.13-2.054 3.464 0 2.698 2.473 3.653 2.547 3.676-.011.059-.393 1.308-1.304 2.58-.812 1.12-1.661 2.24-2.952 2.24-1.29 0-1.623-.72-3.113-.72-1.452 0-1.969.743-3.15.743-1.18 0-2.004-1.037-2.952-2.31-1.097-1.494-1.983-3.816-1.983-6.02 0-3.535 2.4-5.41 4.76-5.41 1.256 0 2.302.79 3.09.79.75 0 1.919-.837 3.346-.837.541 0 2.485.047 3.765 1.804zm-4.443-3.3c.59-.671 1.008-1.603 1.008-2.534 0-.129-.01-.26-.035-.365-.961.035-2.104.613-2.793 1.378-.541.59-1.046 1.52-1.046 2.464 0 .142.025.284.036.33.06.01.16.023.258.023.862 0 1.946-.553 2.572-1.297z" fill="#fff"/></svg>