<svg fill="none" height="30" viewBox="0 0 149 30" width="149" xmlns="http://www.w3.org/2000/svg" xmlns:xlink="http://www.w3.org/1999/xlink"><linearGradient id="a"><stop offset="0" stop-color="#fff"/><stop offset="1" stop-color="#fff" stop-opacity=".78"/></linearGradient><linearGradient id="b" gradientUnits="userSpaceOnUse" x1="16" x2="6.3615" xlink:href="#a" y1=".838867" y2="25.3751"/><linearGradient id="c" gradientUnits="userSpaceOnUse" x1="142.482" x2="136.163" xlink:href="#a" y1="7.53003" y2="18.9843"/><linearGradient id="d" gradientUnits="userSpaceOnUse" x1="127.699" x2="122.084" xlink:href="#a" y1="7.53003" y2="19.9269"/><linearGradient id="e" gradientUnits="userSpaceOnUse" x1="111.664" x2="105.815" xlink:href="#a" y1="7.70996" y2="19.3514"/><linearGradient id="f" gradientUnits="userSpaceOnUse" x1="95.6091" x2="89.9942" xlink:href="#a" y1="7.53003" y2="19.9269"/><linearGradient id="g" gradientUnits="userSpaceOnUse" x1="80.7583" x2="74.745" xlink:href="#a" y1="7.70996" y2="19.1212"/><linearGradient id="h" gradientUnits="userSpaceOnUse" x1="64.9378" x2="59.1483" xlink:href="#a" y1="7.70996" y2="19.4301"/><linearGradient id="i" gradientUnits="userSpaceOnUse" x1="49.06" x2="43.3117" xlink:href="#a" y1="7.53003" y2="19.7706"/><g fill="url(#b)"><path d="m31.779 14.4656c.2947.2954.2947.7736 0 1.069l-13.3387 13.3689c-.4765.4776-1.2925.1401-1.2925-.5345v-5.68c0-.0501.0199-.0981.0553-.1336l7.4049-7.4217c.0736-.0738.0736-.1934 0-.2672l-7.4049-7.42167c-.0354-.03547-.0553-.08352-.0553-.13362v-5.68004c0-.674589.816-1.012032 1.2925-.53448z"/><path d="m7.39205 15.1337c-.07368-.0738-.07368-.1934 0-.2672l7.43885-7.45571c.0354-.03547.0553-.08353.0553-.13363v-5.68004c0-.674591-.816-1.012035-1.2925-.53449l-13.372663 13.40297c-.2947154.2954-.2947165.7736-.000001 1.069l13.372664 13.403c.4765.4775 1.2925.1401 1.2925-.5345v-5.68c0-.0501-.0199-.0982-.0553-.1337z"/><path d="m21.747 14.8665c.0737.0739.0737.1934 0 .2672l-4.2115 4.2211c-.1429.1432-.3877.042-.3877-.1604v-8.3886c0-.2024.2448-.3036.3877-.1603z"/></g><path d="m142.492 22.47c-1.307 0-2.406-.2-3.3-.6-.893-.4-1.573-.96-2.04-1.68-.453-.72-.68-1.5466-.68-2.48h3.16c.013.48.12.9.32 1.26.214.3467.534.62.96.82.44.2 1.007.3 1.7.3.8 0 1.44-.1466 1.92-.44.48-.2933.72-.7266.72-1.3 0-.3466-.053-.6333-.16-.86-.106-.2266-.293-.4133-.56-.56-.253-.16-.6-.2866-1.04-.38-.427-.1066-.973-.22-1.64-.34-.827-.12-1.56-.2933-2.2-.52-.64-.2266-1.173-.5066-1.6-.84-.426-.3333-.746-.7333-.96-1.2-.213-.48-.32-1.04-.32-1.68 0-.92.227-1.7066.68-2.35997.467-.66667 1.127-1.18 1.98-1.54.854-.36 1.867-.54 3.04-.54 1.147 0 2.134.18 2.96.54.84.36 1.487.86667 1.94 1.52.454.65337.68 1.41337.68 2.27997h-3.14c-.013-.4666-.14-.8466-.38-1.14-.227-.2933-.526-.5066-.9-.64-.373-.1333-.793-.19997-1.26-.19997-.48 0-.9.06667-1.26.19997-.36.1334-.633.3267-.82.58-.186.2534-.28.5534-.28.9 0 .44.113.7734.34 1 .24.2267.62.4067 1.14.54.52.12 1.2.2534 2.04.4.613.0934 1.214.22 1.8.38.587.16 1.12.4 1.6.72.48.3067.86.74 1.14 1.3.28.5467.42 1.26.42 2.14 0 .8667-.227 1.64-.68 2.32-.44.6667-1.106 1.1867-2 1.56-.88.36-1.987.54-3.32.54z" fill="url(#c)"/><path d="m127.699 22.47c-1.107 0-2.107-.1666-3-.5-.893-.3333-1.667-.82-2.32-1.46-.64-.64-1.133-1.42-1.48-2.34-.347-.9333-.52-1.9933-.52-3.18 0-1.1866.173-2.24.52-3.16s.84-1.7 1.48-2.33997c.653-.64 1.427-1.12667 2.32-1.46s1.893-.5 3-.5 2.107.16667 3 .5 1.667.82 2.32 1.46c.653.63997 1.147 1.41997 1.48 2.33997.347.92.52 1.9734.52 3.16 0 1.1867-.173 2.2467-.52 3.18-.347.92-.847 1.7-1.5 2.34-.64.64-1.407 1.1267-2.3 1.46-.893.3334-1.893.5-3 .5zm0-2.66c.84 0 1.567-.18 2.18-.54.627-.36 1.107-.8933 1.44-1.6.333-.72.5-1.6133.5-2.68 0-.8-.1-1.4933-.3-2.08-.187-.6-.46-1.1-.82-1.5-.36-.4133-.793-.72-1.3-.92s-1.073-.3-1.7-.3c-.827 0-1.553.18-2.18.54-.613.3467-1.087.88-1.42 1.6-.333.7067-.5 1.5934-.5 2.66 0 .8.093 1.5067.28 2.12.2.6.48 1.1.84 1.5s.787.7 1.28.9c.507.2 1.073.3 1.7.3z" fill="url(#d)"/><path d="m105.224 22.29v-14.58004h3.72l6.14 10.30004h.14l-.12-4.66v-5.64004h3v14.58004h-3.52l-6.14-10.08h-.14l.08 4.22v5.86z" fill="url(#e)"/><path d="m95.6091 22.47c-1.1067 0-2.1067-.1666-3-.5-.8934-.3333-1.6667-.82-2.32-1.46-.64-.64-1.1334-1.42-1.48-2.34-.3467-.9333-.52-1.9933-.52-3.18 0-1.1866.1733-2.24.52-3.16.3466-.92.84-1.7 1.48-2.33997.6533-.64 1.4266-1.12667 2.32-1.46.8933-.33333 1.8933-.5 3-.5 1.1066 0 2.1066.16667 3 .5.8933.33333 1.6669.82 2.3199 1.46.653.63997 1.147 1.41997 1.48 2.33997.347.92.52 1.9734.52 3.16 0 1.1867-.173 2.2467-.52 3.18-.347.92-.847 1.7-1.5 2.34-.64.64-1.4066 1.1267-2.2999 1.46-.8934.3334-1.8934.5-3 .5zm0-2.66c.84 0 1.5666-.18 2.18-.54.6266-.36 1.1066-.8933 1.44-1.6.3333-.72.5-1.6133.5-2.68 0-.8-.1-1.4933-.3-2.08-.1867-.6-.46-1.1-.82-1.5-.36-.4133-.7934-.72-1.3-.92-.5067-.2-1.0734-.3-1.7-.3-.8267 0-1.5534.18-2.18.54-.6134.3467-1.0867.88-1.42 1.6-.3334.7067-.5 1.5934-.5 2.66 0 .8.0933 1.5067.28 2.12.2.6.48 1.1.84 1.5s.7866.7 1.28.9c.5066.2 1.0733.3 1.7.3z" fill="url(#f)"/><path d="m74.6183 22.29v-14.58004h7.2c.84 0 1.58.09333 2.22.28.64.17333 1.1667.44 1.58.8.4267.36.7467.8.96 1.32004.2133.5066.32 1.1.32 1.78 0 .8666-.2267 1.6133-.68 2.24-.4533.6266-1.0667 1.04-1.84 1.24v.14c.7333.1466 1.2733.4533 1.62.92.36.4533.54 1.0866.54 1.9v2.28c0 .2666.0067.5466.02.84.0267.28.1067.56.24.84h-3.14c-.08-.1734-.14-.4067-.18-.7-.04-.2934-.06-.62-.06-.98v-1.74c0-.4134-.0667-.76-.2-1.04-.12-.2934-.34-.5134-.66-.66-.32-.16-.7733-.24-1.36-.24h-3.46v5.36zm3.12-7.84h3.62c.8533 0 1.46-.2 1.82-.6s.54-.9134.54-1.54c0-.4934-.1-.8867-.3-1.18-.2-.2934-.48-.5067-.84-.64-.3467-.1334-.7533-.2-1.22-.2h-3.62z" fill="url(#g)"/><path d="m58.3878 22.29v-14.58004h3.12v6.24004l-.38-.38h7.62l-.38.38v-6.24004h3.12v14.58004h-3.12v-6.44l.38.38h-7.62l.38-.38v6.44z" fill="url(#h)"/><path d="m49.32 22.47c-1.0933 0-2.0867-.1666-2.98-.5-.8933-.3333-1.6667-.82-2.32-1.46s-1.1533-1.42-1.5-2.34c-.3467-.9333-.52-1.9933-.52-3.18 0-1.1733.1733-2.22.52-3.14.3467-.9333.8467-1.72 1.5-2.35997.6533-.64 1.4267-1.12667 2.32-1.46s1.8867-.5 2.98-.5c1.2533 0 2.3667.22 3.34.66.9733.42667 1.76 1.02667 2.36 1.8.6.77337.9667 1.68667 1.1 2.73997h-3.16c-.12-.5066-.3467-.9466-.68-1.32-.3333-.3866-.7533-.6866-1.26-.9-.4933-.2133-1.06-.32-1.7-.32-.84 0-1.5667.18-2.18.54-.6133.3467-1.0867.88-1.42 1.6-.3333.7067-.5 1.5934-.5 2.66 0 .8134.0933 1.52.28 2.12.2.6.4733 1.1.82 1.5.36.4.7933.7 1.3.9s1.0733.3 1.7.3 1.1933-.1066 1.7-.32c.5067-.2133.9267-.5133 1.26-.9.3467-.3866.5733-.8333.68-1.34h3.16c-.12 1.0534-.4867 1.9734-1.1 2.76-.6133.7734-1.4067 1.38-2.38 1.82-.9733.4267-2.08.64-3.32.64z" fill="url(#i)"/></svg>