<svg fill="none" height="18" viewBox="0 0 18 18" width="18" xmlns="http://www.w3.org/2000/svg" xmlns:xlink="http://www.w3.org/1999/xlink"><clipPath id="a"><path d="m1 1h16v16h-16z"/></clipPath><mask id="b" height="16" maskUnits="userSpaceOnUse" width="16" x="1" y="1"><path clip-rule="evenodd" d="m15 1h-12v1h-1v1h-1v12h1v1h1v1h12v-1h1v-1h1v-12h-1v-1h-1z" fill="#d9d9d9" fill-rule="evenodd"/></mask><g fill="#000"><path d="m1 1h16v16h-16z"/><path d="m0 2h18v14h-18z"/><path d="m2 0h14v18h-14z"/></g><g mask="url(#b)"><g clip-path="url(#a)"><path d="m17 1h-16v16h16z" fill="#11f07a"/><g fill="#0d0e11"><path d="m5 14h-1v1h1z"/><path d="m4 5h-1v1h1z"/><path d="m6 3h-1v1h1z"/><path d="m14.0998 9h-.8v.8h.8z"/><path d="m13 4h-2v2h2z"/><path d="m8 9h-3v3h3z"/><path d="m14 12h-1v3h1z"/><path d="m7 7h-1v7h1z"/><path d="m12.5 3h-1v4h1z"/><path d="m15 13h-3v1h3z"/><path d="m10 10h-7v1h7z"/><path d="m14 4.5h-4v1h4z"/></g></g><g fill="#fff" fill-opacity=".5"><path d="m3 1h12v1h-12z"/><path d="m2 2h1v1h-1z"/><path d="m15 2h1v1h-1z"/><path d="m1 3h1v1h-1z"/><path d="m16 3h1v1h-1z"/></g></g></svg>