<svg xmlns="http://www.w3.org/2000/svg" version="1.1" xmlns:xlink="http://www.w3.org/1999/xlink" width="32" height="32"><svg width="32" height="32" fill="none" xmlns="http://www.w3.org/2000/svg"><path d="M31.779 15.467a.757.757 0 0 1 0 1.069L18.44 29.904a.757.757 0 0 1-1.292-.534v-5.68c0-.05.02-.098.055-.134l7.405-7.421a.19.19 0 0 0 0-.268l-7.405-7.421a.19.19 0 0 1-.055-.134v-5.68a.757.757 0 0 1 1.292-.534L31.78 15.467zm-24.387.668a.19.19 0 0 1 0-.268l7.439-7.455a.19.19 0 0 0 .055-.134v-5.68a.757.757 0 0 0-1.292-.534L.22 15.467a.757.757 0 0 0 0 1.069l13.373 13.403a.757.757 0 0 0 1.292-.535v-5.68a.19.19 0 0 0-.055-.134l-7.439-7.455z" fill="#181819"></path><path d="M21.747 15.867a.19.19 0 0 1 0 .268l-4.212 4.22a.227.227 0 0 1-.387-.16v-8.388c0-.203.245-.304.387-.16l4.212 4.22z" fill="#181819"></path></svg><style>@media (prefers-color-scheme: light) { :root { filter: none; } }
@media (prefers-color-scheme: dark) { :root { filter: invert(100%); } }
</style></svg>